<svg xmlns="http://www.w3.org/2000/svg" width="1628" height="1445" viewBox="0 0 1628 1445" version="1.1">
	<path d="M 175.500 1.683 C 154.056 4.420, 132.740 11.017, 111.500 21.491 C 88.240 32.960, 70.811 45.275, 52.146 63.429 C 25.684 89.166, 10.381 114.409, 2.697 145 L 0.562 153.500 0.241 488 C 0.020 718.828, 0.249 825.599, 0.981 832.500 C 3.429 855.589, 11.715 874.031, 28.678 894.136 C 49.603 918.939, 87.749 941.798, 126.987 953.048 C 139.250 956.565, 154.359 959.755, 163.053 960.663 C 166.451 961.018, 169.390 961.853, 169.653 962.537 C 169.913 963.216, 158.129 1012.453, 143.465 1071.954 C 128.802 1131.455, 117.018 1180.351, 117.278 1180.612 C 117.539 1180.872, 195.545 1132.129, 290.626 1072.293 L 463.500 963.500 848 962.941 C 1202.094 962.427, 1233.127 962.250, 1240.429 960.712 C 1262.726 956.013, 1275.167 951.915, 1292.733 943.480 C 1336.306 922.557, 1363.893 890.608, 1374.313 849 L 1376.442 840.500 1376.748 500.500 C 1377.083 128.428, 1377.410 151.017, 1371.401 130.235 C 1355.100 73.859, 1304.675 23.608, 1247.755 7.018 C 1225.351 0.489, 1271.754 0.985, 699.119 1.150 C 412.779 1.232, 177.150 1.472, 175.500 1.683 M 275.350 151.514 C 268.798 153.287, 265.628 155.240, 258.280 162.026 C 255.020 165.037, 232.898 185.050, 209.118 206.500 C 168.488 243.150, 165.691 245.890, 162.691 251.979 L 159.500 258.459 159.500 320.001 L 159.500 381.543 162.833 388.312 C 166.389 395.536, 169.690 398.443, 178 401.670 C 182.045 403.240, 188.084 403.453, 237.735 403.776 L 292.970 404.136 293.235 598.818 C 293.483 781.007, 293.612 793.828, 295.245 798.604 C 297.741 805.902, 303.799 812.369, 310.782 815.190 L 316.500 817.500 386 817.500 L 455.500 817.500 461 814.906 C 465.069 812.988, 479.667 800.591, 517.100 767.268 C 544.930 742.493, 568.650 720.684, 569.812 718.804 C 575.176 710.126, 575 715.710, 575 553.919 L 575 404.258 582.169 403.552 C 596.629 402.127, 595.334 403.065, 649.805 354.607 C 677.137 330.293, 700.703 308.967, 702.172 307.215 C 703.642 305.464, 705.884 301.437, 707.155 298.266 C 709.453 292.531, 709.467 292.206, 709.796 238.660 C 710.014 203.048, 709.756 182.434, 709.033 177.776 C 706.951 164.358, 702.281 157.303, 692.500 152.801 L 687.500 150.500 484 150.310 C 312.667 150.150, 279.686 150.340, 275.350 151.514 M 993.500 150.683 C 981.414 151.352, 960.205 154.085, 949 156.419 C 924 161.625, 899.607 171.859, 883.874 183.741 C 871.160 193.343, 773.864 281.306, 768.409 288.131 C 751.272 309.568, 741.492 332.206, 735.846 363.500 L 733.500 376.500 733.500 514.500 C 733.500 624.354, 733.772 654.336, 734.834 661.500 C 741.885 709.084, 759.365 745.835, 788.121 773.534 C 810.407 795, 838.196 807.882, 875.500 814.039 C 896.056 817.432, 922.529 818.133, 1018 817.808 L 1108.500 817.500 1114.186 815.202 C 1118.954 813.275, 1128.032 805.648, 1170.423 767.950 C 1198.226 743.226, 1222.087 721.310, 1223.448 719.248 C 1228.923 710.954, 1229.121 708.234, 1228.771 645.797 C 1228.481 594.073, 1228.280 588.057, 1226.697 583.944 C 1224.140 577.297, 1219.728 572.505, 1213.230 569.314 L 1207.500 566.500 1121 565.954 C 1030.360 565.382, 1031.763 565.454, 1022.905 560.947 C 1018.296 558.602, 1013.583 553.223, 1011.856 548.336 C 1010.764 545.246, 1010.500 530.783, 1010.500 474 L 1010.500 403.500 1061 403 C 1111.204 402.503, 1111.527 402.486, 1116.122 400.200 C 1118.837 398.849, 1141.751 379.221, 1171.653 352.633 C 1220.977 308.776, 1222.655 307.165, 1225.531 300.933 L 1228.500 294.500 1228.500 233.500 L 1228.500 172.500 1225.369 165.891 C 1221.978 158.734, 1218.204 155.174, 1210.931 152.270 C 1206.797 150.618, 1199.570 150.495, 1103 150.426 C 1046.075 150.385, 996.800 150.501, 993.500 150.683 M 279.326 159.037 C 271.012 160.696, 267.474 163.541, 263.788 171.537 L 261.500 176.500 261.500 234 L 261.500 291.500 264.500 297.500 C 267.167 302.833, 268.167 303.833, 273.500 306.500 L 279.500 309.500 337.750 309.809 L 396 310.117 396 506.900 C 396 717.898, 395.784 708.675, 400.887 715.842 C 402.057 717.484, 405.148 719.879, 407.757 721.164 L 412.500 723.500 481.527 723.500 L 550.553 723.500 555.527 720.941 C 560.877 718.188, 564.380 713.892, 565.984 708.118 C 566.641 705.751, 566.991 636.326, 566.994 507.315 L 567 310.129 625.750 309.815 C 679.811 309.525, 684.819 309.356, 688.500 307.697 C 694.044 305.198, 697.654 301.464, 699.732 296.080 C 701.349 291.891, 701.500 286.588, 701.500 234 C 701.500 181.412, 701.349 176.109, 699.732 171.920 C 697.654 166.536, 694.044 162.802, 688.500 160.303 C 684.692 158.587, 674.874 158.493, 484 158.352 C 373.725 158.271, 281.622 158.579, 279.326 159.037 M 988.146 159.079 C 921.158 164.218, 875.925 188.610, 853.813 231.519 C 844.476 249.637, 838.156 273.120, 836.055 297.500 C 834.623 314.112, 834.636 569.005, 836.069 585.328 C 838.091 608.355, 844.292 632.632, 852.188 648.434 C 870.157 684.393, 904.062 708.007, 952 717.951 C 979.001 723.552, 977.646 723.500, 1096 723.500 C 1200.922 723.500, 1205.646 723.422, 1209 721.636 C 1214.607 718.650, 1217.820 715.040, 1219.723 709.589 C 1221.343 704.949, 1221.500 699.599, 1221.500 649 C 1221.500 598.401, 1221.343 593.051, 1219.723 588.411 C 1217.820 582.960, 1214.607 579.350, 1209 576.364 C 1205.685 574.599, 1200.920 574.473, 1119 573.983 C 1032.938 573.468, 1032.467 573.454, 1025.915 571.243 C 1013.777 567.148, 1006.257 559.372, 1004.022 548.608 C 1003.295 545.103, 1003.042 510.344, 1003.227 439.482 C 1003.500 335.664, 1003.503 335.493, 1005.637 330.878 C 1009.674 322.147, 1016.561 316.032, 1026.500 312.351 C 1031.182 310.618, 1036.996 310.468, 1118 310 C 1198.479 309.535, 1204.777 309.375, 1208.486 307.702 C 1213.975 305.227, 1216.446 302.671, 1219.169 296.652 L 1221.500 291.500 1221.500 235 C 1221.500 172.089, 1221.461 171.665, 1215.083 164.975 C 1208.142 157.695, 1213.003 157.983, 1099.568 158.142 C 1043.981 158.221, 993.841 158.642, 988.146 159.079 M 327 233 L 327 237 402.500 237 L 478 237 478 445 L 478 653 482 653 L 486 653 486 445 L 486 237 561 237 L 636 237 636 233 L 636 229 481.500 229 L 327 229 327 233 M 1006 229.655 C 981.063 232.045, 967.066 235.324, 953.391 241.978 C 944.829 246.145, 942.281 247.979, 936.738 253.966 C 925.949 265.619, 919.871 280.208, 916.516 302.500 C 914.292 317.284, 914.264 565.541, 916.485 580.277 C 918.701 594.977, 920.620 601.489, 926.025 612.653 C 934.755 630.684, 947.013 640.221, 969.500 646.478 C 990.047 652.195, 991.971 652.307, 1076.750 652.731 L 1155 653.121 1155 649.116 L 1155 645.111 1076.750 644.719 C 1002.145 644.345, 997.988 644.229, 987.500 642.214 C 965.813 638.049, 952.745 632.425, 943.832 623.423 C 934.305 613.800, 928.556 601.890, 924.306 582.975 C 922.793 576.240, 922.591 562.930, 922.259 448.500 C 921.997 358.226, 922.218 318.629, 923.023 311.572 C 927.481 272.483, 942.441 252.357, 973.588 243.546 C 994.470 237.639, 993.004 237.728, 1077.250 237.286 L 1155 236.878 1155 232.939 L 1155 229 1082.250 229.160 C 1042.237 229.248, 1007.925 229.471, 1006 229.655 M 1468.733 636.750 C 1468.443 886.941, 1468.283 909.323, 1466.717 918.870 C 1460.313 957.905, 1445.832 988.445, 1423.612 1009.777 C 1406.569 1026.140, 1388.823 1035.535, 1364.244 1041.212 L 1354.500 1043.462 908.615 1043.741 L 462.730 1044.020 463.286 1064.260 C 464.009 1090.601, 466.845 1102.691, 477.063 1123 C 500.394 1169.370, 549.095 1204.993, 599.362 1212.457 C 608.573 1213.824, 648.215 1214, 947.488 1214 L 1285.218 1214 1310.859 1230.147 C 1444.820 1314.507, 1538.389 1373.212, 1539.674 1373.705 C 1540.847 1374.155, 1541.084 1373.834, 1540.635 1372.401 C 1540.307 1371.356, 1532.134 1336.300, 1522.473 1294.500 C 1512.811 1252.700, 1504.654 1217.487, 1504.345 1216.250 C 1503.789 1214.024, 1503.895 1214, 1514.261 1214 C 1575.979 1214, 1619.367 1165.938, 1626.974 1089.144 C 1628.354 1075.215, 1628.360 483.313, 1626.981 470 C 1623.663 437.980, 1614.013 414.588, 1596.504 396.127 C 1584.938 383.931, 1571.913 375.890, 1555.172 370.610 C 1540.282 365.914, 1531.173 365.008, 1498.774 365.004 L 1469.049 365 1468.733 636.750" stroke="none" fill="black" fill-rule="evenodd"/>
</svg>