<svg xmlns="http://www.w3.org/2000/svg" width="2134" height="2134" viewBox="0 0 2134 2134" version="1.1">
	<path d="M 427.500 382.683 C 397.442 386.520, 365.211 398.892, 338.149 416.982 C 323.087 427.050, 316.313 432.532, 303.665 444.890 C 277.555 470.402, 262.327 495.625, 254.697 526 L 252.562 534.500 252.241 869 C 252.020 1099.828, 252.249 1206.599, 252.981 1213.500 C 256.382 1245.579, 271.606 1270.626, 303.519 1296.642 C 329.832 1318.093, 378.851 1337.879, 415.053 1341.663 C 418.451 1342.018, 421.390 1342.853, 421.653 1343.537 C 421.913 1344.216, 410.129 1393.453, 395.465 1452.954 C 380.802 1512.455, 369.021 1561.354, 369.285 1561.618 C 369.720 1562.054, 450.693 1511.334, 645.500 1388.601 L 715.500 1344.500 1100 1343.941 C 1454.094 1343.427, 1485.127 1343.250, 1492.429 1341.712 C 1514.726 1337.013, 1527.167 1332.915, 1544.733 1324.480 C 1578.715 1308.162, 1602.449 1285.705, 1616.577 1256.500 C 1622.812 1243.612, 1626.358 1232.016, 1627.891 1219.500 C 1629.347 1207.621, 1629.451 546.575, 1627.999 533.905 C 1620.699 470.202, 1565.230 407.102, 1499.755 388.018 C 1477.351 381.489, 1523.754 381.985, 951.119 382.150 C 664.779 382.232, 429.150 382.472, 427.500 382.683 M 527.350 532.514 C 524.517 533.280, 520.885 534.716, 519.278 535.704 C 517.671 536.692, 494.200 557.525, 467.121 582 C 420.661 623.992, 417.707 626.865, 414.693 632.979 L 411.500 639.459 411.500 701.001 L 411.500 762.543 414.833 769.312 C 418.389 776.536, 421.690 779.443, 430 782.670 C 434.045 784.240, 440.084 784.453, 489.735 784.776 L 544.970 785.136 545.235 979.818 C 545.482 1161.236, 545.618 1174.844, 547.227 1179.544 C 549.318 1185.649, 554.875 1192.386, 559.960 1194.980 C 567.462 1198.807, 574.004 1199.112, 642 1198.800 L 707.500 1198.500 713 1195.906 C 717.069 1193.988, 731.667 1181.591, 769.100 1148.268 C 796.930 1123.493, 820.650 1101.684, 821.812 1099.804 C 827.176 1091.126, 827 1096.710, 827 934.919 L 827 785.258 834.169 784.552 C 848.629 783.127, 847.334 784.065, 901.805 735.607 C 929.137 711.293, 952.703 689.967, 954.172 688.215 C 955.642 686.464, 957.884 682.437, 959.155 679.266 C 961.453 673.531, 961.467 673.206, 961.796 619.660 C 962.014 584.048, 961.756 563.434, 961.033 558.776 C 958.951 545.358, 954.281 538.303, 944.500 533.801 L 939.500 531.500 736 531.310 C 564.667 531.150, 531.686 531.340, 527.350 532.514 M 1245.500 531.683 C 1233.414 532.352, 1212.205 535.085, 1201 537.419 C 1176 542.625, 1151.607 552.859, 1135.874 564.741 C 1123.326 574.217, 1025.915 662.248, 1020.336 669.153 C 1000.579 693.605, 989.500 722.899, 985.978 760 C 985.230 767.875, 984.999 813.267, 985.244 904 C 985.632 1047.312, 985.377 1040.206, 991.012 1064.654 C 999.319 1100.690, 1016.343 1131.703, 1040.622 1155.030 C 1062.456 1176.007, 1090.533 1188.937, 1127.500 1195.039 C 1148.056 1198.432, 1174.529 1199.133, 1270 1198.808 L 1360.500 1198.500 1366.186 1196.202 C 1370.954 1194.275, 1380.032 1186.648, 1422.423 1148.950 C 1450.226 1124.226, 1474.087 1102.310, 1475.448 1100.248 C 1480.923 1091.954, 1481.121 1089.234, 1480.771 1026.797 C 1480.481 975.073, 1480.280 969.057, 1478.697 964.944 C 1476.140 958.297, 1471.728 953.505, 1465.230 950.314 L 1459.500 947.500 1373 946.954 C 1282.360 946.382, 1283.763 946.454, 1274.905 941.947 C 1270.296 939.602, 1265.583 934.223, 1263.856 929.336 C 1262.764 926.246, 1262.500 911.783, 1262.500 855 L 1262.500 784.500 1313 784 C 1363.204 783.503, 1363.527 783.486, 1368.122 781.200 C 1370.837 779.849, 1393.751 760.221, 1423.653 733.633 C 1472.977 689.776, 1474.655 688.165, 1477.531 681.933 L 1480.500 675.500 1480.500 614.500 L 1480.500 553.500 1477.369 546.891 C 1473.978 539.734, 1470.204 536.174, 1462.931 533.270 C 1458.797 531.618, 1451.570 531.495, 1355 531.426 C 1298.075 531.385, 1248.800 531.501, 1245.500 531.683 M 531.326 540.037 C 523.012 541.696, 519.474 544.541, 515.788 552.537 L 513.500 557.500 513.500 615 L 513.500 672.500 516.500 678.500 C 519.167 683.833, 520.167 684.833, 525.500 687.500 L 531.500 690.500 589.750 690.809 L 648 691.117 648 887.900 C 648 1098.898, 647.784 1089.675, 652.887 1096.842 C 654.057 1098.484, 657.148 1100.879, 659.757 1102.164 L 664.500 1104.500 733.527 1104.500 L 802.553 1104.500 807.527 1101.941 C 812.877 1099.188, 816.380 1094.892, 817.984 1089.118 C 818.641 1086.751, 818.991 1017.326, 818.994 888.315 L 819 691.129 877.750 690.815 C 931.811 690.525, 936.819 690.356, 940.500 688.697 C 946.044 686.198, 949.654 682.464, 951.732 677.080 C 953.349 672.891, 953.500 667.588, 953.500 615 C 953.500 562.412, 953.349 557.109, 951.732 552.920 C 949.654 547.536, 946.044 543.802, 940.500 541.303 C 936.692 539.587, 926.874 539.493, 736 539.352 C 625.725 539.271, 533.622 539.579, 531.326 540.037 M 1240.146 540.079 C 1173.158 545.218, 1127.925 569.610, 1105.813 612.519 C 1096.476 630.637, 1090.156 654.120, 1088.055 678.500 C 1086.623 695.112, 1086.636 950.005, 1088.069 966.328 C 1090.091 989.355, 1096.292 1013.632, 1104.188 1029.434 C 1122.157 1065.393, 1156.062 1089.007, 1204 1098.951 C 1231.001 1104.552, 1229.646 1104.500, 1348 1104.500 C 1452.922 1104.500, 1457.646 1104.422, 1461 1102.636 C 1466.607 1099.650, 1469.820 1096.040, 1471.723 1090.589 C 1473.343 1085.949, 1473.500 1080.599, 1473.500 1030 C 1473.500 979.401, 1473.343 974.051, 1471.723 969.411 C 1469.820 963.960, 1466.607 960.350, 1461 957.364 C 1457.685 955.599, 1452.920 955.473, 1371 954.983 C 1284.938 954.468, 1284.467 954.454, 1277.915 952.243 C 1267.019 948.567, 1261.184 943.382, 1257.319 933.942 C 1255.600 929.743, 1255.500 923.670, 1255.500 823 L 1255.500 716.500 1257.637 711.878 C 1261.674 703.147, 1268.561 697.032, 1278.500 693.351 C 1283.182 691.618, 1288.996 691.468, 1370 691 C 1450.479 690.535, 1456.777 690.375, 1460.486 688.702 C 1465.975 686.227, 1468.446 683.671, 1471.169 677.652 L 1473.500 672.500 1473.500 616 C 1473.500 553.089, 1473.461 552.665, 1467.083 545.975 C 1460.142 538.695, 1465.003 538.983, 1351.568 539.142 C 1295.981 539.221, 1245.841 539.642, 1240.146 540.079 M 579 614 L 579 618 654.500 618 L 730 618 730 826 L 730 1034 734 1034 L 738 1034 738 826 L 738 618 813 618 L 888 618 888 614 L 888 610 733.500 610 L 579 610 579 614 M 1258 610.655 C 1233.063 613.045, 1219.066 616.324, 1205.391 622.978 C 1196.829 627.145, 1194.281 628.979, 1188.738 634.966 C 1177.949 646.619, 1171.871 661.208, 1168.516 683.500 C 1166.292 698.284, 1166.264 946.541, 1168.485 961.277 C 1170.701 975.977, 1172.620 982.489, 1178.025 993.653 C 1186.755 1011.684, 1199.013 1021.221, 1221.500 1027.478 C 1242.047 1033.195, 1243.971 1033.307, 1328.750 1033.731 L 1407 1034.121 1407 1030.116 L 1407 1026.111 1328.750 1025.719 C 1254.145 1025.345, 1249.988 1025.229, 1239.500 1023.214 C 1217.813 1019.049, 1204.745 1013.425, 1195.832 1004.423 C 1186.305 994.800, 1180.556 982.890, 1176.306 963.975 C 1174.793 957.240, 1174.591 943.930, 1174.259 829.500 C 1173.997 739.226, 1174.218 699.629, 1175.023 692.572 C 1179.481 653.483, 1194.441 633.357, 1225.588 624.546 C 1246.470 618.639, 1245.004 618.728, 1329.250 618.286 L 1407 617.878 1407 613.939 L 1407 610 1334.250 610.160 C 1294.237 610.248, 1259.925 610.471, 1258 610.655 M 1720.733 1017.750 C 1720.443 1267.941, 1720.283 1290.323, 1718.717 1299.870 C 1712.361 1338.613, 1699.103 1367.018, 1677.072 1389.091 C 1659.494 1406.704, 1641.889 1416.289, 1616.244 1422.212 L 1606.500 1424.462 1160.615 1424.741 L 714.730 1425.020 715.286 1445.260 C 716.009 1471.601, 718.845 1483.691, 729.063 1504 C 751.037 1547.673, 793.935 1580.797, 843.488 1592.356 L 852.500 1594.458 1195.500 1594.979 L 1538.500 1595.500 1545.500 1600.083 C 1551.576 1604.061, 1574.794 1618.732, 1605.500 1637.995 C 1610.450 1641.101, 1654.010 1668.495, 1702.300 1698.871 C 1750.590 1729.248, 1790.805 1754.372, 1791.666 1754.702 C 1792.847 1755.155, 1793.086 1754.836, 1792.639 1753.401 C 1792.314 1752.356, 1784.141 1717.300, 1774.476 1675.500 C 1764.812 1633.700, 1756.652 1598.487, 1756.344 1597.250 C 1755.789 1595.024, 1755.896 1595, 1766.261 1595 C 1827.990 1595, 1871.390 1546.926, 1878.977 1470.144 C 1880.354 1456.205, 1880.358 864.291, 1878.981 851 C 1875.663 818.980, 1866.013 795.588, 1848.504 777.127 C 1836.938 764.931, 1823.913 756.890, 1807.172 751.610 C 1792.282 746.914, 1783.173 746.008, 1750.774 746.004 L 1721.049 746 1720.733 1017.750" stroke="none" fill="black" fill-rule="evenodd"/>
</svg>