<?xml version="1.0" encoding="utf-8"?>
<!-- Generator: Adobe Illustrator 23.0.3, SVG Export Plug-In . SVG Version: 6.00 Build 0)  -->
<svg version="1.1" xmlns="http://www.w3.org/2000/svg" xmlns:xlink="http://www.w3.org/1999/xlink" x="0px" y="0px"
	 viewBox="0 0 563.33 442.44" style="enable-background:new 0 0 563.33 442.44;" xml:space="preserve">
<style type="text/css">
	.st0{fill:url(#SVGID_1_);}
	.st1{fill:url(#SVGID_2_);}
</style>
<g id="Background">
</g>
<g id="Objects">
	<g>
		<linearGradient id="SVGID_1_" gradientUnits="userSpaceOnUse" x1="173.5074" y1="273.6824" x2="532.4882" y2="273.6824">
			<stop  offset="0" style="stop-color:#FEAC17"/>
			<stop  offset="0.238" style="stop-color:#F49E1B"/>
			<stop  offset="0.6878" style="stop-color:#D97926"/>
			<stop  offset="1" style="stop-color:#C35B2E"/>
		</linearGradient>
		<path class="st0" d="M497.28,128.18h-13.74V279.2c0,23.53-13.67,44.79-41.14,44.79H173.51v7.18c0,20.8,23.64,41.77,47.92,41.77
			h205.6l78.65,46.24l-11.42-46.24h3.02c24.26,0,35.21-20.95,35.21-41.77V164.03C532.49,143.24,521.54,128.18,497.28,128.18z"/>
		<linearGradient id="SVGID_2_" gradientUnits="userSpaceOnUse" x1="30.8452" y1="193.4746" x2="455.0952" y2="193.4746">
			<stop  offset="0" style="stop-color:#FEAC17"/>
			<stop  offset="0.238" style="stop-color:#F49E1B"/>
			<stop  offset="0.6878" style="stop-color:#D97926"/>
			<stop  offset="1" style="stop-color:#C35B2E"/>
		</linearGradient>
		<path class="st1" d="M402.26,23.26H89.95c-27.48,0-59.1,24.41-59.1,47.94v189.28c0,21.67,26.79,37.32,52.49,39.72l-16.73,63.49
			l107.17-63.03h228.48c27.46,0,52.84-16.66,52.84-40.17V107.34V71.2C455.1,47.67,429.72,23.26,402.26,23.26z M137.59,183.04
			c-15.58,0-28.21-12.63-28.21-28.21c0-15.58,12.63-28.21,28.21-28.21c15.57,0,28.21,12.63,28.21,28.21
			C165.81,170.41,153.16,183.04,137.59,183.04z M242.97,183.04c-15.58,0-28.21-12.63-28.21-28.21c0-15.58,12.63-28.21,28.21-28.21
			s28.21,12.63,28.21,28.21C271.18,170.41,258.55,183.04,242.97,183.04z M348.36,183.04c-15.58,0-28.23-12.63-28.23-28.21
			c0-15.58,12.65-28.21,28.23-28.21c15.55,0,28.21,12.63,28.21,28.21C376.58,170.41,363.91,183.04,348.36,183.04z"/>
	</g>
</g>
</svg>
